<svg xmlns="http://www.w3.org/2000/svg" viewBox="0 0 436.18 139.25"><g><path d="M267.92 3.7c2.96-.54 5.09.85 6.38 4.19 1.29 3.33 2.81 5.71 4.56 7.13 1.75 1.42 2.63 3.33 2.63 5.75s.04 4.58.13 6.5c.08 1.92-.21 3.73-.88 5.44-.67 1.71.63 4.44 3.88 8.19s2.29 5-2.88 3.75-8.5-1.69-10-1.31-2.73 2.02-3.69 4.94a13.32 13.32 0 0 1-4.94 6.88 16.67 16.67 0 0 1-8.07 3 7.1 7.1 0 0 1-7.13-3.31 150.18 150.18 0 0 0-4.94-6.94c-1.58-2.08-1.6-4.65-.06-7.69s.48-5.63-3.19-7.75c-3.67-2.13-4.98-4.52-3.94-7.19a14.11 14.11 0 0 1 5.06-6.5 34.44 34.44 0 0 0 5.94-5.31 16.89 16.89 0 0 1 5.88-4.38 193.3 193.3 0 0 1 7.13-3.06c2.46-1 5.17-1.77 8.13-2.31z"
/><path fill="#3e2f5b" stroke-width="0" d="M336.58 3.92c2.71-.25 5.48-.02 8.32.69a8.15 8.15 0 0 1 5.88 5.25 108.02 108.02 0 0 0 6.88 14.51 24.65 24.65 0 0 1 2.75 7.82c.5 2.83-.73 5.06-3.69 6.69-2.96 1.63-4.31 4.23-4.06 7.82.25 3.58-1.06 5.81-3.94 6.69s-5.59 1.94-8.13 3.19c-2.54 1.25-5.25 1.94-8.13 2.06s-5.23-1.21-7.07-4c-1.83-2.79-3.88-4.61-6.13-5.44a17.06 17.06 0 0 1-6.06-3.88 160.96 160.96 0 0 1-5.63-5.81c-1.96-2.13-2.36-4.56-1.19-7.32a11.96 11.96 0 0 0 .38-8.5c-.92-2.92-.19-5.25 2.19-7s4.11-4.09 5.19-7A8.8 8.8 0 0 1 319.95 4a16.84 16.84 0 0 1 8.38-.5c2.79.54 5.54.69 8.25.44z"/><path fill="#afb3f7" stroke-width="0" d="M409.91.34c3.08.46 6.02 1.35 8.82 2.69 2.79 1.33 5.31 3.06 7.57 5.19s4.17 4.54 5.75 7.25 2.71 5.56 3.38 8.57c.67 3 .9 6.06.69 9.19a29.86 29.86 0 0 1-6.63 16.94 31.2 31.2 0 0 1-6.82 6.25 31 31 0 0 1-8.32 4 30.37 30.37 0 0 1-18.14 0 31.44 31.44 0 0 1-8.32-4 31.67 31.67 0 0 1-6.82-6.25 29.86 29.86 0 0 1-6.63-16.94c-.21-3.13.02-6.19.69-9.19.67-3 1.79-5.86 3.38-8.57 1.58-2.71 3.5-5.13 5.75-7.25s4.77-3.86 7.57-5.19a30.99 30.99 0 0 1 8.82-2.69c3.08-.46 6.17-.46 9.25 0z"/><path d="M5.98 57.69c-1.01 0-1.85-.34-2.54-1.03s-1.03-1.53-1.03-2.54V7.68a3.4 3.4 0 0 1 1.03-2.57c.69-.66 1.53-1 2.54-1h16.4c3.11 0 5.84.61 8.2 1.82s4.21 2.89 5.56 5.04a13.64 13.64 0 0 1 2.02 7.41c0 2.24-.61 4.26-1.82 6.07a12.63 12.63 0 0 1-4.97 4.29c3.02.73 5.44 2.17 7.27 4.32 1.83 2.15 2.74 4.96 2.74 8.44 0 3.16-.74 5.95-2.23 8.37a15.78 15.78 0 0 1-6.21 5.73 19.35 19.35 0 0 1-9.12 2.09H5.98zm3.57-31.56h12.83c2.61 0 4.74-.64 6.41-1.92 1.67-1.28 2.5-3.22 2.5-5.83s-.83-4.54-2.5-5.8c-1.67-1.26-3.81-1.89-6.41-1.89H9.55v15.44zm0 24.97h14.27c2.1 0 3.96-.37 5.56-1.1a8.67 8.67 0 0 0 3.77-3.22 9.6 9.6 0 0 0 1.37-5.28 8.2 8.2 0 0 0-1.37-4.87 8.6 8.6 0 0 0-3.77-2.92c-1.6-.66-3.45-1-5.56-1H9.55V51.1zm47.67 6.59a3.3 3.3 0 0 1-2.5-1.03c-.66-.69-1-1.53-1-2.54V7.68c0-1.01.34-1.85 1.03-2.54s1.51-1.03 2.47-1.03a3.52 3.52 0 0 1 3.57 3.57v42.88h24.83c1.01 0 1.85.34 2.54 1.03s1.03 1.53 1.03 2.54-.34 1.85-1.03 2.54-1.53 1.03-2.54 1.03h-28.4zm67.03.69c-4.03 0-7.71-.67-11.04-2.02a25.13 25.13 0 0 1-8.61-5.69 25.75 25.75 0 0 1-5.59-8.71c-1.33-3.36-1.99-7.05-1.99-11.08s.66-7.71 1.99-11.04a24.99 24.99 0 0 1 14.2-14.37c3.34-1.35 7.02-2.02 11.04-2.02s7.69.68 11.01 2.02a25.62 25.62 0 0 1 8.61 5.69c2.42 2.45 4.3 5.34 5.63 8.68s1.99 7.02 1.99 11.04-.66 7.72-1.99 11.08a25.23 25.23 0 0 1-14.24 14.4 28.97 28.97 0 0 1-11.01 2.02zm0-6.45c2.97 0 5.71-.54 8.2-1.61a19.7 19.7 0 0 0 10.7-11.15c.98-2.56 1.47-5.33 1.47-8.3s-.49-5.74-1.47-8.3a19.3 19.3 0 0 0-10.7-11.11c-2.49-1.05-5.23-1.58-8.2-1.58s-5.71.53-8.2 1.58a19.12 19.12 0 0 0-6.45 4.42 20.46 20.46 0 0 0-4.22 6.69c-1.01 2.56-1.51 5.33-1.51 8.3s.5 5.74 1.51 8.3a20.46 20.46 0 0 0 4.22 6.69c1.81 1.9 3.96 3.38 6.45 4.46s5.22 1.61 8.2 1.61zm43.7 5.76c-1.01 0-1.85-.34-2.54-1.03s-1.03-1.53-1.03-2.54V7.68a3.4 3.4 0 0 1 1.03-2.57c.69-.66 1.53-1 2.54-1h16.4c3.11 0 5.84.61 8.2 1.82s4.21 2.89 5.56 5.04a13.64 13.64 0 0 1 2.02 7.41c0 2.24-.61 4.26-1.82 6.07a12.63 12.63 0 0 1-4.97 4.29c3.02.73 5.44 2.17 7.27 4.32 1.83 2.15 2.74 4.96 2.74 8.44 0 3.16-.74 5.95-2.23 8.37a15.78 15.78 0 0 1-6.21 5.73 19.35 19.35 0 0 1-9.12 2.09h-17.84zm3.57-31.56h12.83c2.61 0 4.74-.64 6.41-1.92 1.67-1.28 2.5-3.22 2.5-5.83s-.83-4.54-2.5-5.8c-1.67-1.26-3.81-1.89-6.41-1.89h-12.83v15.44zm0 24.97h14.27c2.1 0 3.96-.37 5.56-1.1a8.67 8.67 0 0 0 3.77-3.22 9.6 9.6 0 0 0 1.37-5.28 8.2 8.2 0 0 0-1.37-4.87 8.6 8.6 0 0 0-3.77-2.92c-1.6-.66-3.45-1-5.56-1h-14.27V51.1zM18.46 138.84c-2.88 0-5.52-.4-7.92-1.2-2.4-.8-4.47-1.94-6.21-3.43a16.75 16.75 0 0 1-4.12-5.25 1.67 1.67 0 0 1-.03-1.58c.25-.5.67-.85 1.27-1.03.5-.18 1.01-.16 1.51.07s.89.6 1.17 1.1a13.4 13.4 0 0 0 3.26 3.84 14.05 14.05 0 0 0 4.8 2.5c1.85.57 3.95.86 6.28.86 2.61 0 4.86-.43 6.76-1.3a9.75 9.75 0 0 0 4.39-3.84 11.65 11.65 0 0 0 1.54-6.17c0-3.02-1.09-5.57-3.26-7.65s-5.48-3.42-9.91-4.01c-5.12-.73-9.12-2.39-12.01-4.97a12.2 12.2 0 0 1-4.32-9.43c0-2.7.67-5.05 2.02-7.07a13.4 13.4 0 0 1 5.69-4.7 20.17 20.17 0 0 1 8.47-1.68c2.38 0 4.57.39 6.59 1.17 2.01.78 3.77 1.79 5.28 3.05a15.65 15.65 0 0 1 3.5 3.95c.32.5.4 1.04.24 1.61-.16.57-.54.97-1.13 1.2a2.3 2.3 0 0 1-2.74-.9c-.64-.96-1.46-1.9-2.47-2.81a12.2 12.2 0 0 0-3.77-2.26 15.1 15.1 0 0 0-5.49-.89c-3.75 0-6.7.85-8.85 2.54-2.15 1.69-3.22 4.09-3.22 7.2 0 1.65.45 3.15 1.34 4.49.89 1.35 2.3 2.5 4.22 3.46s4.37 1.69 7.34 2.2c5.9 1.01 10.14 2.82 12.73 5.45s3.88 5.98 3.88 10.05c0 2.38-.4 4.53-1.2 6.45a13.25 13.25 0 0 1-3.43 4.87 15.4 15.4 0 0 1-5.32 3.05 20.97 20.97 0 0 1-6.86 1.06zm54.61 0c-3.93 0-7.57-.69-10.91-2.06a26.39 26.39 0 0 1-14.55-14.55c-1.37-3.34-2.06-6.97-2.06-10.91s.69-7.56 2.06-10.87a26.6 26.6 0 0 1 14.55-14.51c3.34-1.37 6.97-2.06 10.91-2.06s7.56.69 10.87 2.06a26.74 26.74 0 0 1 14.51 14.51c1.37 3.32 2.06 6.94 2.06 10.87s-.69 7.57-2.06 10.91-3.3 6.25-5.8 8.75-5.4 4.42-8.71 5.8a28.21 28.21 0 0 1-10.87 2.06zm0-4.12c3.29 0 6.36-.58 9.19-1.75a22.52 22.52 0 0 0 12.38-12.38c1.17-2.83 1.75-5.92 1.75-9.26s-.58-6.36-1.75-9.19a22.52 22.52 0 0 0-12.38-12.38c-2.83-1.17-5.9-1.75-9.19-1.75s-6.43.58-9.26 1.75a22.52 22.52 0 0 0-12.38 12.38c-1.17 2.84-1.75 5.9-1.75 9.19s.58 6.43 1.75 9.26a22.42 22.42 0 0 0 12.38 12.38 24.01 24.01 0 0 0 9.26 1.75zm42.19 3.44c-.55 0-1.03-.19-1.44-.58a1.95 1.95 0 0 1-.62-1.47V86.65c0-.59.21-1.09.62-1.47.41-.39.89-.58 1.44-.58a1.99 1.99 0 0 1 2.06 2.05v47.82h28.2c.64 0 1.14.17 1.51.51.37.34.55.79.55 1.34s-.18 1-.55 1.34c-.37.34-.87.51-1.51.51h-30.25zm63.18 1.09c-4.03 0-7.58-.79-10.67-2.37s-5.51-3.77-7.27-6.59a17.77 17.77 0 0 1-2.64-9.64V86.62c0-.64.19-1.14.58-1.51.39-.37.88-.55 1.47-.55.64 0 1.14.18 1.51.55.37.37.55.87.55 1.51v34.03c0 2.84.7 5.34 2.09 7.51s3.34 3.88 5.83 5.11c2.49 1.24 5.34 1.85 8.54 1.85s6.11-.62 8.58-1.85a14.58 14.58 0 0 0 5.83-5.11 13.42 13.42 0 0 0 2.13-7.51V86.62c0-.64.19-1.14.58-1.51.39-.37.88-.55 1.47-.55.64 0 1.14.18 1.51.55.37.37.55.87.55 1.51v34.03c0 3.61-.88 6.83-2.64 9.64a18.1 18.1 0 0 1-7.31 6.59 23.31 23.31 0 0 1-10.7 2.37zm32.11-50.97c-.55 0-.99-.17-1.34-.51-.34-.34-.51-.79-.51-1.34s.17-1 .51-1.34c.34-.34.79-.51 1.34-.51h38.83c.55 0 .99.17 1.34.51.34.34.51.79.51 1.34s-.17 1-.51 1.34c-.34.34-.79.51-1.34.51h-38.83zm19.42 49.87a1.97 1.97 0 0 1-2.05-2.05V84.58h4.12v51.52a1.99 1.99 0 0 1-2.05 2.05zm32.92.01a1.97 1.97 0 0 1-2.05-2.05V86.65a1.97 1.97 0 0 1 2.05-2.05 1.99 1.99 0 0 1 2.06 2.05v49.46c0 .59-.2 1.09-.58 1.47a2 2 0 0 1-1.48.58zm42.26.68c-3.93 0-7.57-.69-10.91-2.06a26.39 26.39 0 0 1-14.55-14.55c-1.37-3.34-2.06-6.97-2.06-10.91s.69-7.56 2.06-10.87a26.6 26.6 0 0 1 14.55-14.51c3.34-1.37 6.97-2.06 10.91-2.06s7.56.69 10.87 2.06a26.74 26.74 0 0 1 14.51 14.51c1.37 3.32 2.06 6.94 2.06 10.87s-.69 7.57-2.06 10.91-3.3 6.25-5.8 8.75-5.4 4.42-8.71 5.8a28.21 28.21 0 0 1-10.87 2.06zm0-4.12c3.29 0 6.36-.58 9.19-1.75a22.52 22.52 0 0 0 12.38-12.38c1.17-2.83 1.75-5.92 1.75-9.26s-.58-6.36-1.75-9.19a22.52 22.52 0 0 0-12.38-12.38c-2.83-1.17-5.9-1.75-9.19-1.75s-6.43.58-9.26 1.75a22.52 22.52 0 0 0-12.38 12.38c-1.17 2.84-1.75 5.9-1.75 9.19s.58 6.43 1.75 9.26a22.42 22.42 0 0 0 12.38 12.38 24.01 24.01 0 0 0 9.26 1.75zm42.19 3.44a1.97 1.97 0 0 1-2.05-2.05V86.65a1.97 1.97 0 0 1 2.05-2.05c.64 0 1.17.23 1.58.69l34.85 45.35V86.67a1.97 1.97 0 0 1 2.05-2.05 2.06 2.06 0 0 1 2.06 2.05v49.46c0 .59-.21 1.09-.62 1.47-.41.39-.89.58-1.44.58a2 2 0 0 1-1.51-.62l-34.92-45.42v43.97c0 .59-.2 1.09-.58 1.47a2 2 0 0 1-1.48.58zm72.04.68c-2.88 0-5.52-.4-7.92-1.2-2.4-.8-4.47-1.94-6.21-3.43a16.75 16.75 0 0 1-4.12-5.25 1.67 1.67 0 0 1-.03-1.58c.25-.5.67-.85 1.27-1.03.5-.18 1.01-.16 1.51.07s.89.6 1.17 1.1a13.4 13.4 0 0 0 3.26 3.84 14.05 14.05 0 0 0 4.8 2.5c1.85.57 3.95.86 6.28.86 2.61 0 4.86-.43 6.76-1.3a9.75 9.75 0 0 0 4.39-3.84 11.65 11.65 0 0 0 1.54-6.17c0-3.02-1.09-5.57-3.26-7.65s-5.48-3.42-9.91-4.01c-5.12-.73-9.12-2.39-12.01-4.97a12.2 12.2 0 0 1-4.32-9.43c0-2.7.67-5.05 2.02-7.07a13.4 13.4 0 0 1 5.69-4.7 20.17 20.17 0 0 1 8.47-1.68c2.38 0 4.57.39 6.59 1.17 2.01.78 3.77 1.79 5.28 3.05a15.65 15.65 0 0 1 3.5 3.95c.32.5.4 1.04.24 1.61-.16.57-.54.97-1.13 1.2a2.3 2.3 0 0 1-2.74-.9c-.64-.96-1.46-1.9-2.47-2.81a12.2 12.2 0 0 0-3.77-2.26 15.1 15.1 0 0 0-5.49-.89c-3.75 0-6.7.85-8.85 2.54-2.15 1.69-3.22 4.09-3.22 7.2 0 1.65.45 3.15 1.34 4.49.89 1.35 2.3 2.5 4.22 3.46s4.37 1.69 7.34 2.2c5.9 1.01 10.14 2.82 12.73 5.45s3.88 5.98 3.88 10.05c0 2.38-.4 4.53-1.2 6.45a13.25 13.25 0 0 1-3.43 4.87 15.4 15.4 0 0 1-5.32 3.05 20.97 20.97 0 0 1-6.86 1.06z"/></g></svg>
