<?xml version="1.0" standalone="no"?>
<!DOCTYPE svg PUBLIC "-//W3C//DTD SVG 20010904//EN"
 "http://www.w3.org/TR/2001/REC-SVG-20010904/DTD/svg10.dtd">
<svg version="1.0" xmlns="http://www.w3.org/2000/svg"
 width="700.000000pt" height="700.000000pt" viewBox="0 0 700.000000 700.000000"
 preserveAspectRatio="xMidYMid meet">
<metadata>
Created by potrace 1.14, written by Peter Selinger 2001-2017
</metadata>
<g transform="translate(0.000000,700.000000) scale(0.100000,-0.100000)"
fill="#000000" stroke="none">
<path d="M5097 4224 c-1 -1 -30 -4 -63 -8 -298 -31 -560 -277 -617 -581 -20
-102 -13 -262 14 -332 5 -13 7 -23 4 -23 -2 0 9 -29 25 -65 177 -395 644 -553
1019 -344 60 33 142 98 177 139 12 14 34 39 48 55 49 57 110 191 132 290 11
52 12 230 2 276 -42 181 -124 315 -271 444 -68 60 -234 128 -337 140 -71 8
-130 12 -133 9z"/>
<path d="M3185 4144 c-5 -1 -29 -8 -52 -14 -62 -16 -98 -52 -149 -151 -35 -67
-60 -102 -100 -136 -68 -59 -81 -95 -64 -172 17 -74 14 -133 -9 -205 -30 -95
-18 -121 108 -246 85 -84 122 -113 185 -145 68 -34 89 -51 139 -113 74 -91
117 -115 196 -109 52 5 174 39 196 56 6 5 44 21 85 36 157 58 169 71 175 190
5 93 21 124 88 173 72 54 88 75 92 117 6 60 -22 142 -104 305 -43 85 -88 182
-101 215 -39 100 -71 138 -140 163 -46 17 -84 21 -265 28 -82 3 -177 7 -210 8
-33 2 -64 2 -70 0z"/>
<path d="M1860 4125 c-79 -18 -191 -60 -293 -111 -68 -33 -106 -61 -160 -115
-40 -39 -95 -89 -124 -111 -78 -60 -133 -142 -133 -200 0 -33 37 -81 91 -118
98 -67 115 -109 80 -198 -37 -94 -32 -114 66 -252 73 -104 93 -125 131 -142
58 -26 133 -19 219 21 80 38 134 95 169 179 15 37 39 82 52 100 22 29 29 32
76 32 28 0 94 -9 146 -20 112 -23 156 -25 163 -6 6 15 -4 31 -78 132 -44 61
-50 74 -48 114 1 25 5 106 8 180 8 168 1 200 -63 267 -29 30 -66 87 -91 137
-59 123 -90 139 -211 111z"/>
</g>
</svg>
